<?xml version="1.0" encoding="utf-8"?>
<!-- Generator: Adobe Illustrator 24.0.1, SVG Export Plug-In . SVG Version: 6.00 Build 0)  -->
<svg version="1.1" id="Layer_1" xmlns="http://www.w3.org/2000/svg" xmlns:xlink="http://www.w3.org/1999/xlink" x="0px" y="0px"
	 viewBox="0 0 720 113.3" style="enable-background:new 0 0 720 113.3;" xml:space="preserve">
<style type="text/css">
	.st0{fill:#1D262D;}
</style>
<g>
	<path class="st0" d="M63.6,111.7L50.4,83H36.6v28.7H0V1.1h53.5c30,0,47.2,14.4,47.2,39.6c0,16.1-6.2,28.1-17.5,35l21.8,36H63.6z
		 M36.6,55.2h16.9c7.9,0,12.5-4.9,12.5-13.4c0-8.2-4.6-12.9-12.5-12.9H36.6V55.2z"/>
	<path class="st0" d="M215.9,1.1v27.8h-57v13.6h51.8v27.8h-51.8V84h58.4v27.8h-95V1.1H215.9z"/>
	<path class="st0" d="M294,30.5c-13.3,0-22.9,10.6-22.9,25.3c0,14.8,9.6,25.6,22.9,25.6c7.9,0,17.8-4.9,25.1-12.6l21.2,22.6
		c-12.3,13.4-31.1,22.1-48.1,22.1c-33.9,0-58.6-24.1-58.6-57.1c0-32.5,25.3-56.2,60-56.2c16.9,0,35.4,7.9,46.7,20.2l-21.2,25.1
		C312.5,36.3,302.6,30.5,294,30.5z"/>
	<path class="st0" d="M470,56.3c0,32.8-25.6,57-60.8,57s-60.8-24-60.8-57c0-32.8,25.6-56.3,60.8-56.3S470,23.7,470,56.3z M386,56.5
		c0,15.2,11,26.4,23.7,26.4s22.7-11.2,22.7-26.4s-10.1-26-22.7-26C396.9,30.5,386,41.4,386,56.5z"/>
	<path class="st0" d="M551.8,111.7L538.5,83h-13.7v28.7h-36.6V1.1h53.5c30,0,47.2,14.4,47.2,39.6c0,16.1-6.2,28.1-17.5,35l21.8,36
		H551.8z M524.8,55.2h16.9c7.9,0,12.5-4.9,12.5-13.4c0-8.2-4.6-12.9-12.5-12.9h-16.9V55.2z"/>
	<path class="st0" d="M720,56.3c0,33.6-24.1,55.4-61.6,55.4h-48V1.1h49.4C696.3,1.1,720,22.7,720,56.3z M682.6,56.7
		c0-16.4-9.3-27.1-23.5-27.1h-12v53.8h13.7C674.1,83.3,682.6,72.9,682.6,56.7z"/>
</g>
<g>
</g>
<g>
</g>
<g>
</g>
<g>
</g>
<g>
</g>
<g>
</g>
</svg>
